<?xml version="1.0" encoding="UTF-8"?><!DOCTYPE svg PUBLIC "-//W3C//DTD SVG 1.1//EN" "http://www.w3.org/Graphics/SVG/1.1/DTD/svg11.dtd"><svg xmlns="http://www.w3.org/2000/svg"><symbol id="logo" viewBox="0 0 254.8 49">
    <path fill-rule="evenodd" clip-rule="evenodd" fill="#159EB7" d="M9.6 0h29.8C44.7 0 49 4.3 49 9.6v29.8c0 5.3-4.3 9.6-9.6 9.6H0c.2 0 0-.2 0 0V9.6C0 4.3 4.3 0 9.6 0z"/>
    <path fill-rule="evenodd" clip-rule="evenodd" fill="#12B7D6" d="M10 3h29c3.9 0 7 3.1 7 7v29c0 3.9-3.1 7-7 7H3s0 .1 0 0V10c0-3.9 3.1-7 7-7z"/>
    <g fill="#3D4347">
        <path d="M82.7 36.4c0 .5-.2.9-.7 1.3-.5.4-1 .6-1.7.6s-1.3-.2-1.7-.6-.6-.9-.6-1.3V26c0-1.3-.4-2.3-1.1-3.1-.7-.8-1.7-1.2-3.1-1.2-1.2 0-2.2.3-2.9 1-.8.7-1.2 1.7-1.3 3.1v10.5c0 .5-.2.9-.6 1.3-.4.4-1 .6-1.7.6s-1.3-.2-1.7-.6c-.4-.4-.7-.8-.7-1.3V12.5c0-.5.2-.9.7-1.3.4-.4 1-.6 1.7-.6s1.2.2 1.7.6c.4.4.6.8.6 1.3V20h.2c.5-.8 1.1-1.4 2-1.9.8-.5 1.8-.7 3-.7 1.5 0 2.7.2 3.7.7 1 .5 1.8 1.1 2.4 1.9s1.1 1.7 1.3 2.7c.3 1 .4 2.1.4 3.3v10.4zM85.8 26.6c0-1.3.2-2.4.5-3.5.4-1.1.9-2.1 1.6-2.9.7-.8 1.7-1.5 2.8-2 1.1-.5 2.5-.7 4.1-.7 1.5 0 2.9.2 4 .7 1.1.5 2.1 1.1 2.8 2 .7.8 1.3 1.8 1.7 2.9.4 1.1.5 2.3.5 3.5v2.8c0 1.2-.2 2.3-.5 3.4-.4 1.1-.9 2-1.7 2.8-.7.8-1.7 1.4-2.8 1.9-1.1.5-2.5.7-4 .7-1.6 0-2.9-.2-4.1-.7-1.1-.5-2.1-1.1-2.8-1.9s-1.3-1.7-1.6-2.8c-.4-1.1-.5-2.2-.5-3.4v-2.8zm4.7 2.8c0 1.5.4 2.6 1.2 3.4.8.8 1.8 1.2 3.2 1.2 1.4 0 2.4-.4 3.2-1.2.8-.8 1.2-1.9 1.2-3.4v-2.9c0-1.6-.4-2.8-1.2-3.6-.8-.8-1.8-1.2-3.2-1.2-1.4 0-2.4.4-3.2 1.2-.8.8-1.2 2-1.2 3.6v2.9zM106.4 35.4c-.1-.2-.1-.4-.2-.6 0-.2 0-.5.1-.7s.2-.5.3-.7c.1-.2.4-.4.6-.5.4-.2.7-.2 1-.2.3 0 .5 0 .7.1.2.1.4.2.6.4.2.1.4.3.6.4.8.6 2 .9 3.6.9.9 0 1.5-.2 2.1-.6.5-.4.8-.9.8-1.5s-.2-1.1-.7-1.5c-.5-.4-1.1-.7-1.8-.9-.7-.3-1.5-.5-2.4-.8s-1.6-.6-2.4-1c-.7-.4-1.3-1-1.8-1.7s-.7-1.6-.7-2.8c0-1.9.7-3.4 2-4.5 1.3-1.2 3.1-1.7 5.4-1.7 1 0 1.9.1 2.6.3.7.2 1.4.4 1.9.6.5.2.9.5 1.2.8.3.3.5.5.6.8.2.4.3.8.2 1.3 0 .5-.2.9-.6 1.1-.5.3-1 .5-1.5.3-.5-.1-.9-.3-1.2-.5l-1-.5c-.5-.2-1.2-.3-2.1-.3-.9 0-1.5.2-1.9.6-.4.4-.7.9-.7 1.5 0 .5.2.9.7 1.2.5.3 1.1.5 1.8.8.7.2 1.5.5 2.3.7.8.3 1.6.6 2.3 1.1.7.5 1.3 1.1 1.8 1.9.5.8.7 1.8.7 3 0 1.9-.7 3.3-2 4.4s-3.1 1.6-5.4 1.6c-.8 0-1.6-.1-2.4-.2s-1.5-.4-2.2-.6c-.7-.3-1.2-.6-1.7-.9-.6-.4-1-.7-1.2-1.1zM125.2 17.8v-4.1c0-.5.2-.9.6-1.3.4-.4 1-.6 1.8-.6.7 0 1.2.2 1.7.6.4.4.6.8.6 1.3v4.1h3c.5 0 .9.2 1.2.5.3.3.5.8.5 1.3 0 .6-.2 1-.5 1.4s-.7.5-1.2.5h-3v9.7c0 1.1.1 1.9.4 2.3.3.4.7.6 1.3.6.5 0 1 0 1.4-.1.4-.1.8-.1 1.3-.1.6 0 1.1.2 1.3.5.3.3.4.8.4 1.4 0 .5-.1.9-.4 1.2-.3.3-.6.6-1.1.8-.4.2-.9.3-1.5.4-.6.1-1.2.1-1.8.1-2.1 0-3.6-.5-4.6-1.6s-1.4-2.9-1.4-5.6v-9.5h-1.6c-.5 0-.9-.2-1.2-.5-.3-.3-.5-.8-.5-1.4 0-.5.2-1 .5-1.3.3-.3.7-.5 1.2-.5h1.6zM139.6 17.8v-1.2c0-2.5.6-4.3 1.8-5.3 1.2-1 3-1.5 5.3-1.5.6 0 1.1.1 1.7.2.5.1 1 .3 1.4.5s.7.5 1 .8c.2.3.4.7.4 1.1 0 .6-.2 1.1-.5 1.4-.3.3-.8.5-1.4.5-.5 0-.9-.1-1.2-.2-.4-.1-.8-.2-1.4-.2-.9 0-1.6.2-2 .6-.4.4-.6 1-.6 1.9v1.4h3.1c.5 0 .9.2 1.2.5.3.3.5.8.5 1.3 0 .6-.2 1-.5 1.4s-.7.5-1.2.5h-3.1v14.8c0 .5-.2.9-.6 1.3s-1 .6-1.6.6c-.7 0-1.3-.2-1.8-.6s-.6-.8-.6-1.3V21.5h-1.4c-.5 0-.9-.2-1.2-.5-.3-.3-.5-.8-.5-1.4 0-.5.2-1 .5-1.3.3-.3.7-.5 1.2-.5h1.5zM150.9 26.6c0-1.3.2-2.4.5-3.5.4-1.1.9-2.1 1.6-2.9.7-.8 1.7-1.5 2.8-2 1.1-.5 2.5-.7 4.1-.7 1.5 0 2.9.2 4 .7 1.1.5 2.1 1.1 2.8 2 .7.8 1.3 1.8 1.7 2.9.4 1.1.5 2.3.5 3.5v2.8c0 1.2-.2 2.3-.5 3.4-.4 1.1-.9 2-1.7 2.8-.7.8-1.7 1.4-2.8 1.9-1.1.5-2.5.7-4 .7-1.6 0-2.9-.2-4.1-.7-1.1-.5-2.1-1.1-2.8-1.9s-1.3-1.7-1.6-2.8c-.4-1.1-.5-2.2-.5-3.4v-2.8zm4.7 2.8c0 1.5.4 2.6 1.2 3.4.8.8 1.8 1.2 3.2 1.2 1.4 0 2.4-.4 3.2-1.2.8-.8 1.2-1.9 1.2-3.4v-2.9c0-1.6-.4-2.8-1.2-3.6-.8-.8-1.8-1.2-3.2-1.2-1.4 0-2.4.4-3.2 1.2-.8.8-1.2 2-1.2 3.6v2.9zM180.7 21.8c-.6 0-1.1 0-1.6.1s-.9.2-1.2.5c-.3.2-.6.6-.8 1-.2.5-.3 1-.3 1.8v11.2c0 .5-.2.9-.6 1.3-.4.4-1 .6-1.7.6s-1.3-.2-1.7-.6c-.4-.4-.7-.8-.7-1.3v-11c0-2.5.7-4.5 2-5.9 1.4-1.4 3.5-2.1 6.5-2.1 1.4 0 2.4.3 3.1.8.7.5 1 1.3.8 2.2-.1.5-.3.8-.5 1-.3.2-.6.3-1 .4h-2.3zM205.7 38.2c-1.6 0-2.8-.3-3.8-.8s-1.7-1.3-2.3-2.2c-.6.9-1.4 1.7-2.3 2.2-1 .5-2.2.8-3.7.8s-2.7-.2-3.7-.7c-1-.4-1.8-1.1-2.4-1.8-.6-.8-1-1.7-1.2-2.8-.2-1.1-.4-2.2-.4-3.5V19.3c0-.5.2-.9.7-1.3.4-.4 1-.6 1.7-.6s1.2.2 1.7.6c.4.4.6.8.6 1.3v10.3c0 1.5.3 2.5.8 3.2.5.7 1.4 1 2.6 1s2.1-.3 2.6-1 .8-1.8.8-3.2V19.2c0-.2.1-.5.2-.7.2-.2.4-.4.6-.5.2-.1.5-.3.8-.4.3-.1.5-.1.8-.1.5 0 1.1.2 1.6.5s.8.8.8 1.4v10.3c0 1.5.3 2.5.8 3.2s1.4 1 2.6 1c1.2 0 2-.3 2.6-1s.8-1.8.8-3.2V19.3c0-.5.2-.9.6-1.3.4-.4 1-.6 1.6-.6.7 0 1.3.2 1.8.6.4.4.6.8.6 1.3v10.1c0 1.3-.1 2.4-.4 3.5s-.7 2-1.2 2.8c-.6.8-1.4 1.4-2.3 1.8-1.3.5-2.5.7-4 .7zM233.6 25.6c0 1.3-.2 2.1-.7 2.6-.5.5-1.3.8-2.4.8H221v1c0 1.3.4 2.3 1.2 3.1.8.8 1.9 1.2 3.3 1.2.7 0 1.4 0 2-.1.6-.1 1.1-.2 1.4-.4.4-.2.7-.4 1.1-.6s.7-.3 1-.3c.5 0 .9.2 1.2.5.3.3.5.7.5 1.2 0 .4-.2.9-.6 1.3-.4.4-.9.8-1.5 1.2-.6.3-1.4.6-2.3.9s-1.8.3-2.8.3c-1.4 0-2.6-.2-3.7-.6-1.1-.4-2.1-1-2.9-1.7-.8-.7-1.4-1.6-1.9-2.5-.5-1-.7-2-.7-3.1V26c0-1.2.2-2.3.7-3.3.4-1 1-1.9 1.8-2.7s1.7-1.4 2.8-1.8c1.1-.5 2.2-.7 3.5-.7 1.5 0 2.8.2 3.9.7 1.1.5 1.9 1.1 2.6 1.9.7.8 1.2 1.7 1.5 2.6.3 1 .5 1.9.5 2.9zm-8.5-4.3c-1.2 0-2.2.4-2.9 1.1-.7.8-1.1 1.8-1.2 3h8.2v-.6c0-1.1-.4-2-1.1-2.6-.8-.6-1.8-.9-3-.9zM241.3 19.4l.2.1c.5-.7 1.2-1.2 2-1.5.8-.4 1.7-.5 2.7-.5 1.5 0 2.7.2 3.8.7 1.1.5 1.9 1.1 2.6 2 .7.8 1.2 1.8 1.6 3s.5 2.4.5 3.7v2.3c0 1.3-.2 2.4-.5 3.5s-.9 2.1-1.7 2.9c-.7.8-1.7 1.5-2.8 2-1.1.5-2.4.7-3.9.7s-2.9-.2-4.1-.6c-1.2-.4-2.1-1-2.9-1.7-.8-.7-1.4-1.6-1.7-2.5-.4-1-.6-2-.6-3.2V12.5c0-.5.2-.9.7-1.3.4-.4 1-.6 1.7-.6s1.2.2 1.7.6c.4.4.6.8.6 1.3v6.9zm4.2 2.4c-1.2 0-2.2.3-2.9 1-.8.7-1.2 1.7-1.3 3.1v4.6c0 1.2.4 2.1 1.3 2.6.9.6 2 .8 3.3.8 1.3 0 2.3-.4 3-1.3.8-.9 1.1-2 1.1-3.4v-2.4c0-1.7-.4-2.9-1.3-3.8-.7-.8-1.8-1.2-3.2-1.2z"/>
    </g>
    <path fill-rule="evenodd" clip-rule="evenodd" fill="#FFF" d="M38 26H11c-1.7 0-3 1.3-3 3v3c0 1.7 1.3 3 3 3h27c1.7 0 3-1.3 3-3v-3c0-1.7-1.3-3-3-3zm-24 6h-2v-3h2v3zm4 0h-2v-3h2v3zm4 0h-2v-3h2v3zm4 0h-2v-3h2v3zm9.5 0c-.8 0-1.5-.7-1.5-1.5s.7-1.5 1.5-1.5 1.5.7 1.5 1.5-.7 1.5-1.5 1.5zM38 14H11c-1.7 0-3 1.3-3 3v3c0 1.7 1.3 3 3 3h27c1.7 0 3-1.3 3-3v-3c0-1.7-1.3-3-3-3zm-24 6h-2v-3h2v3zm4 0h-2v-3h2v3zm4 0h-2v-3h2v3zm4 0h-2v-3h2v3zm9.5 0c-.8 0-1.5-.7-1.5-1.5s.7-1.5 1.5-1.5 1.5.7 1.5 1.5-.7 1.5-1.5 1.5z"/>
</symbol><symbol id="logolovata" viewBox="-160.3 -21 337.5 58">
    <path d="M100.9-18.7H56.3v15.8h13.6v37.6h17.3V-2.9h13.7zM-142.9 18.9v-37.6h-17.3v53.4h31V18.9zM-113.2 8.4V8v-.4.8zM-88.1-20.1c-17.4 0-25.1 10.2-25.2 28.1.1 17.9 7.8 28.1 25.2 28.1S-63 25.9-62.9 8c-.1-17.9-7.8-28.1-25.2-28.1zm0 41.3c-6.1 0-8.1-4.4-8.1-13.2s2-13.2 8.1-13.2C-81.9-5.2-80-.7-80 8s-1.9 13.2-8.1 13.2zM-62.9 8v.4-.8.4zM-18.8-18.7l-7.4 17.1-7.5-17.1h-16.8L-26.2 37l24.3-55.7zM49.3 34.7L25-20.9 16.6-1.6l5.9 13.5H10.6L3.7 27.8h25.8l3 6.9zM156 34.7l-24.3-55.6-8.5 19.3 6 13.5h-11.9l-6.9 15.9h25.7l3 6.9z"/>
    <g>
        <path d="M168.8-3.4l-2.3-4.7h-1.7v4.7h-2.2v-11.7h4.6c2.4 0 3.8 1.7 3.8 3.6 0 1.7-1 2.7-2.1 3.1l2.6 5.1-2.7-.1zm-1.9-9.6h-2.1v3.1h2.1c1 0 1.7-.7 1.7-1.6 0-1-.6-1.5-1.7-1.5z"/>
        <path d="M166.2 1.8c-6 0-11-5-11-11s5-11 11-11 11 4.9 11 11c-.1 6-4.9 11-11 11zm0-20.6c-5.3 0-9.5 4.3-9.5 9.5S161 .2 166.2.2c5.3 0 9.5-4.3 9.5-9.5s-4.2-9.5-9.5-9.5z"/>
    </g>
</symbol></svg>